<svg xmlns="http://www.w3.org/2000/svg" xmlns:xlink="http://www.w3.org/1999/xlink" width="320" zoomAndPan="magnify" viewBox="0 0 240 239.999995" height="320" preserveAspectRatio="xMidYMid meet" version="1.0"><defs><g/><clipPath id="68a5085672"><path d="M 28.125 31.574219 L 211.875 31.574219 L 211.875 201.074219 L 28.125 201.074219 Z M 28.125 31.574219 " clip-rule="nonzero"/></clipPath><clipPath id="5704ac4ce8"><path d="M 39.375 31.574219 L 200.613281 31.574219 C 203.597656 31.574219 206.457031 32.761719 208.570312 34.871094 C 210.679688 36.980469 211.863281 39.839844 211.863281 42.824219 L 211.863281 189.964844 C 211.863281 192.949219 210.679688 195.808594 208.570312 197.917969 C 206.457031 200.027344 203.597656 201.214844 200.613281 201.214844 L 39.375 201.214844 C 36.390625 201.214844 33.53125 200.027344 31.421875 197.917969 C 29.308594 195.808594 28.125 192.949219 28.125 189.964844 L 28.125 42.824219 C 28.125 39.839844 29.308594 36.980469 31.421875 34.871094 C 33.53125 32.761719 36.390625 31.574219 39.375 31.574219 Z M 39.375 31.574219 " clip-rule="nonzero"/></clipPath><clipPath id="3a7965f40c"><path d="M 59.175781 39 L 179.175781 39 L 179.175781 160 L 59.175781 160 Z M 59.175781 39 " clip-rule="nonzero"/></clipPath></defs><g clip-path="url(#68a5085672)"><g clip-path="url(#5704ac4ce8)"><path fill="#a6a6a6" d="M 47.25 30.449219 L 54 30.449219 L 54 32.699219 L 47.25 32.699219 Z M 55.125 30.449219 L 61.875 30.449219 L 61.875 32.699219 L 55.125 32.699219 Z M 63 30.449219 L 69.75 30.449219 L 69.75 32.699219 L 63 32.699219 Z M 70.875 30.449219 L 77.625 30.449219 L 77.625 32.699219 L 70.875 32.699219 Z M 78.75 30.449219 L 85.5 30.449219 L 85.5 32.699219 L 78.75 32.699219 Z M 86.625 30.449219 L 93.375 30.449219 L 93.375 32.699219 L 86.625 32.699219 Z M 94.5 30.449219 L 101.25 30.449219 L 101.25 32.699219 L 94.5 32.699219 Z M 102.375 30.449219 L 109.125 30.449219 L 109.125 32.699219 L 102.375 32.699219 Z M 110.25 30.449219 L 117 30.449219 L 117 32.699219 L 110.25 32.699219 Z M 118.125 30.449219 L 124.875 30.449219 L 124.875 32.699219 L 118.125 32.699219 Z M 126 30.449219 L 132.75 30.449219 L 132.75 32.699219 L 126 32.699219 Z M 133.875 30.449219 L 140.625 30.449219 L 140.625 32.699219 L 133.875 32.699219 Z M 141.75 30.449219 L 148.5 30.449219 L 148.5 32.699219 L 141.75 32.699219 Z M 149.625 30.449219 L 156.375 30.449219 L 156.375 32.699219 L 149.625 32.699219 Z M 157.5 30.449219 L 164.25 30.449219 L 164.25 32.699219 L 157.5 32.699219 Z M 165.375 30.449219 L 172.125 30.449219 L 172.125 32.699219 L 165.375 32.699219 Z M 173.25 30.449219 L 180 30.449219 L 180 32.699219 L 173.25 32.699219 Z M 181.125 30.449219 L 187.875 30.449219 L 187.875 32.699219 L 181.125 32.699219 Z M 189 30.449219 L 195.75 30.449219 L 195.75 32.699219 L 189 32.699219 Z M 196.875 30.449219 L 200.613281 30.449219 C 201.734375 30.449219 202.835938 30.601562 203.914062 30.898438 L 203.316406 33.066406 C 202.429688 32.824219 201.53125 32.699219 200.613281 32.699219 L 196.875 32.699219 Z M 205.089844 31.289062 C 206.710938 31.917969 208.136719 32.847656 209.363281 34.074219 C 209.917969 34.628906 210.414062 35.230469 210.855469 35.878906 L 208.992188 37.140625 C 208.632812 36.613281 208.226562 36.121094 207.773438 35.664062 C 206.769531 34.660156 205.601562 33.902344 204.277344 33.386719 Z M 211.5 36.941406 C 212.492188 38.777344 212.988281 40.738281 212.988281 42.824219 L 212.988281 44.027344 L 210.738281 44.027344 L 210.738281 42.824219 C 210.738281 41.117188 210.332031 39.511719 209.519531 38.007812 Z M 212.988281 45.152344 L 212.988281 51.902344 L 210.738281 51.902344 L 210.738281 45.152344 Z M 212.988281 53.027344 L 212.988281 59.777344 L 210.738281 59.777344 L 210.738281 53.027344 Z M 212.988281 60.902344 L 212.988281 67.652344 L 210.738281 67.652344 L 210.738281 60.902344 Z M 212.988281 68.777344 L 212.988281 75.527344 L 210.738281 75.527344 L 210.738281 68.777344 Z M 212.988281 76.652344 L 212.988281 83.402344 L 210.738281 83.402344 L 210.738281 76.652344 Z M 212.988281 84.527344 L 212.988281 91.277344 L 210.738281 91.277344 L 210.738281 84.527344 Z M 212.988281 92.402344 L 212.988281 99.152344 L 210.738281 99.152344 L 210.738281 92.402344 Z M 212.988281 100.277344 L 212.988281 107.027344 L 210.738281 107.027344 L 210.738281 100.277344 Z M 212.988281 108.152344 L 212.988281 114.902344 L 210.738281 114.902344 L 210.738281 108.152344 Z M 212.988281 116.027344 L 212.988281 122.777344 L 210.738281 122.777344 L 210.738281 116.027344 Z M 212.988281 123.902344 L 212.988281 130.652344 L 210.738281 130.652344 L 210.738281 123.902344 Z M 212.988281 131.777344 L 212.988281 138.527344 L 210.738281 138.527344 L 210.738281 131.777344 Z M 212.988281 139.652344 L 212.988281 146.402344 L 210.738281 146.402344 L 210.738281 139.652344 Z M 212.988281 147.527344 L 212.988281 154.277344 L 210.738281 154.277344 L 210.738281 147.527344 Z M 212.988281 155.402344 L 212.988281 162.152344 L 210.738281 162.152344 L 210.738281 155.402344 Z M 212.988281 163.277344 L 212.988281 170.027344 L 210.738281 170.027344 L 210.738281 163.277344 Z M 212.988281 171.152344 L 212.988281 177.902344 L 210.738281 177.902344 L 210.738281 171.152344 Z M 212.988281 179.027344 L 212.988281 185.777344 L 210.738281 185.777344 L 210.738281 179.027344 Z M 212.988281 186.902344 L 212.988281 189.964844 C 212.988281 191.339844 212.765625 192.679688 212.320312 193.980469 L 210.191406 193.25 C 210.554688 192.183594 210.738281 191.089844 210.738281 189.964844 L 210.738281 186.902344 Z M 211.859375 195.128906 C 211.242188 196.472656 210.410156 197.667969 209.363281 198.714844 C 208.632812 199.449219 207.820312 200.078125 206.929688 200.605469 L 205.78125 198.671875 C 206.507812 198.238281 207.171875 197.722656 207.773438 197.125 C 208.628906 196.269531 209.308594 195.289062 209.816406 194.1875 Z M 205.832031 201.183594 C 204.179688 201.953125 202.4375 202.339844 200.613281 202.339844 L 198.734375 202.339844 L 198.734375 200.089844 L 200.613281 200.089844 C 202.105469 200.089844 203.53125 199.773438 204.882812 199.144531 Z M 197.609375 202.339844 L 190.859375 202.339844 L 190.859375 200.089844 L 197.609375 200.089844 Z M 189.734375 202.339844 L 182.984375 202.339844 L 182.984375 200.089844 L 189.734375 200.089844 Z M 181.859375 202.339844 L 175.109375 202.339844 L 175.109375 200.089844 L 181.859375 200.089844 Z M 173.984375 202.339844 L 167.234375 202.339844 L 167.234375 200.089844 L 173.984375 200.089844 Z M 166.109375 202.339844 L 159.359375 202.339844 L 159.359375 200.089844 L 166.109375 200.089844 Z M 158.234375 202.339844 L 151.484375 202.339844 L 151.484375 200.089844 L 158.234375 200.089844 Z M 150.359375 202.339844 L 143.609375 202.339844 L 143.609375 200.089844 L 150.359375 200.089844 Z M 142.484375 202.339844 L 135.734375 202.339844 L 135.734375 200.089844 L 142.484375 200.089844 Z M 134.609375 202.339844 L 127.859375 202.339844 L 127.859375 200.089844 L 134.609375 200.089844 Z M 126.734375 202.339844 L 119.984375 202.339844 L 119.984375 200.089844 L 126.734375 200.089844 Z M 118.859375 202.339844 L 112.109375 202.339844 L 112.109375 200.089844 L 118.859375 200.089844 Z M 110.984375 202.339844 L 104.234375 202.339844 L 104.234375 200.089844 L 110.984375 200.089844 Z M 103.109375 202.339844 L 96.359375 202.339844 L 96.359375 200.089844 L 103.109375 200.089844 Z M 95.234375 202.339844 L 88.484375 202.339844 L 88.484375 200.089844 L 95.234375 200.089844 Z M 87.359375 202.339844 L 80.609375 202.339844 L 80.609375 200.089844 L 87.359375 200.089844 Z M 79.484375 202.339844 L 72.734375 202.339844 L 72.734375 200.089844 L 79.484375 200.089844 Z M 71.609375 202.339844 L 64.859375 202.339844 L 64.859375 200.089844 L 71.609375 200.089844 Z M 63.734375 202.339844 L 56.984375 202.339844 L 56.984375 200.089844 L 63.734375 200.089844 Z M 55.859375 202.339844 L 49.109375 202.339844 L 49.109375 200.089844 L 55.859375 200.089844 Z M 47.984375 202.339844 L 41.234375 202.339844 L 41.234375 200.089844 L 47.984375 200.089844 Z M 40.109375 202.339844 L 39.375 202.339844 C 37.101562 202.339844 34.992188 201.757812 33.039062 200.59375 L 34.191406 198.660156 C 35.789062 199.613281 37.515625 200.089844 39.375 200.089844 L 40.109375 200.089844 Z M 32.003906 199.90625 C 31.515625 199.542969 31.054688 199.144531 30.625 198.714844 C 29.269531 197.359375 28.28125 195.773438 27.660156 193.957031 L 29.792969 193.230469 C 30.296875 194.714844 31.105469 196.015625 32.214844 197.125 C 32.566406 197.476562 32.945312 197.800781 33.34375 198.097656 Z M 27.320312 192.765625 C 27.105469 191.84375 27 190.910156 27 189.964844 L 27 185.753906 L 29.25 185.753906 L 29.25 189.964844 C 29.25 190.738281 29.335938 191.503906 29.511719 192.253906 Z M 27 184.628906 L 27 177.878906 L 29.25 177.878906 L 29.25 184.628906 Z M 27 176.753906 L 27 170.003906 L 29.25 170.003906 L 29.25 176.753906 Z M 27 168.878906 L 27 162.128906 L 29.25 162.128906 L 29.25 168.878906 Z M 27 161.003906 L 27 154.253906 L 29.25 154.253906 L 29.25 161.003906 Z M 27 153.128906 L 27 146.378906 L 29.25 146.378906 L 29.25 153.128906 Z M 27 145.253906 L 27 138.503906 L 29.25 138.503906 L 29.25 145.253906 Z M 27 137.378906 L 27 130.628906 L 29.25 130.628906 L 29.25 137.378906 Z M 27 129.503906 L 27 122.753906 L 29.25 122.753906 L 29.25 129.503906 Z M 27 121.628906 L 27 114.878906 L 29.25 114.878906 L 29.25 121.628906 Z M 27 113.753906 L 27 107.003906 L 29.25 107.003906 L 29.25 113.753906 Z M 27 105.878906 L 27 99.128906 L 29.25 99.128906 L 29.25 105.878906 Z M 27 98.003906 L 27 91.253906 L 29.25 91.253906 L 29.25 98.003906 Z M 27 90.128906 L 27 83.378906 L 29.25 83.378906 L 29.25 90.128906 Z M 27 82.253906 L 27 75.503906 L 29.25 75.503906 L 29.25 82.253906 Z M 27 74.378906 L 27 67.628906 L 29.25 67.628906 L 29.25 74.378906 Z M 27 66.503906 L 27 59.753906 L 29.25 59.753906 L 29.25 66.503906 Z M 27 58.628906 L 27 51.878906 L 29.25 51.878906 L 29.25 58.628906 Z M 27 50.753906 L 27 44.003906 L 29.25 44.003906 L 29.25 50.753906 Z M 27 42.878906 L 27 42.824219 C 27 40.28125 27.714844 37.960938 29.148438 35.859375 L 31.007812 37.125 C 29.835938 38.84375 29.25 40.746094 29.25 42.824219 L 29.25 42.878906 Z M 29.902344 34.863281 C 30.128906 34.589844 30.371094 34.328125 30.625 34.074219 C 32.167969 32.53125 33.992188 31.46875 36.097656 30.890625 L 36.691406 33.0625 C 34.972656 33.535156 33.476562 34.402344 32.214844 35.664062 C 32.007812 35.871094 31.8125 36.089844 31.621094 36.3125 Z M 37.308594 30.625 C 37.992188 30.507812 38.679688 30.449219 39.375 30.449219 L 46.125 30.449219 L 46.125 32.699219 L 39.375 32.699219 C 38.808594 32.699219 38.242188 32.746094 37.683594 32.84375 Z M 37.308594 30.625 " fill-opacity="1" fill-rule="nonzero"/></g></g><g clip-path="url(#3a7965f40c)"><path fill="#000000" d="M 119.175781 39.492188 C 86.039062 39.492188 59.175781 66.410156 59.175781 99.617188 C 59.175781 132.820312 86.039062 159.742188 119.175781 159.742188 C 152.3125 159.742188 179.175781 132.820312 179.175781 99.617188 C 179.175781 66.410156 152.3125 39.492188 119.175781 39.492188 Z M 69.175781 99.617188 C 69.175781 71.945312 91.5625 49.515625 119.175781 49.515625 C 146.789062 49.515625 169.175781 71.945312 169.175781 99.617188 C 169.175781 122.164062 154.3125 141.234375 133.867188 147.523438 C 134.425781 137.394531 134.234375 131.125 133.289062 128.703125 C 132.296875 126.152344 131.488281 125.105469 131 124.476562 C 130.683594 124.066406 130.503906 123.835938 130.503906 123.480469 C 130.503906 122.878906 130.925781 122.441406 131.769531 122.171875 C 139.136719 120.539062 144.078125 116.003906 146.589844 108.5625 C 150.074219 98.25 145.101562 90.753906 143.09375 87.71875 C 142.925781 87.46875 142.78125 87.246094 142.660156 87.058594 C 141.097656 84.585938 143.144531 78.566406 145.59375 73.746094 C 137.273438 72.074219 134.09375 75.949219 132.273438 78.171875 C 131.527344 79.078125 131.011719 79.710938 130.460938 79.574219 C 129.96875 79.457031 129.441406 79.222656 128.804688 78.941406 C 126.988281 78.144531 124.308594 76.960938 119.175781 76.960938 C 112.808594 76.960938 108.589844 79.191406 107.945312 79.53125 C 107.886719 79.5625 107.859375 79.574219 107.859375 79.574219 C 104.511719 74.902344 99.757812 72.957031 93.601562 73.746094 C 95.296875 80.539062 95.421875 84.976562 93.980469 87.058594 C 91.820312 90.183594 87.765625 97.445312 90.914062 108.5625 C 94.058594 119.675781 105.511719 122.171875 107.695312 122.171875 L 107.707031 122.175781 C 107.882812 122.210938 109.484375 122.558594 109.003906 123.917969 C 108.910156 124.277344 108.847656 124.769531 108.777344 125.324219 C 108.546875 127.105469 108.238281 129.523438 106.535156 130.308594 C 104.304688 131.339844 99.375 131.902344 97.316406 130.617188 C 96.628906 130.1875 96.136719 129.289062 95.542969 128.210938 C 94.351562 126.046875 92.757812 123.152344 88.402344 121.800781 C 81.871094 119.78125 82.28125 122.453125 83.910156 123.109375 C 84.269531 123.253906 84.746094 123.390625 85.289062 123.542969 C 87.210938 124.089844 89.980469 124.875 91.398438 127.164062 C 91.8125 127.832031 92.242188 128.566406 92.679688 129.316406 C 94.152344 131.851562 95.734375 134.566406 97.316406 135.605469 C 98.679688 136.507812 101.953125 136.867188 107.132812 136.6875 C 106.90625 141.585938 106.789062 145.414062 106.773438 148.167969 C 85.15625 142.636719 69.175781 123 69.175781 99.617188 Z M 69.175781 99.617188 " fill-opacity="0.85" fill-rule="evenodd"/></g><g fill="#000000" fill-opacity="1"><g transform="translate(41.020961, 183.81879)"><g><path d="M 5.09375 0.140625 C 4.226562 0.140625 3.46875 -0.0351562 2.8125 -0.390625 C 2.164062 -0.753906 1.65625 -1.289062 1.28125 -2 C 0.914062 -2.71875 0.734375 -3.601562 0.734375 -4.65625 C 0.734375 -5.707031 0.914062 -6.585938 1.28125 -7.296875 C 1.65625 -8.015625 2.164062 -8.550781 2.8125 -8.90625 C 3.46875 -9.269531 4.226562 -9.453125 5.09375 -9.453125 C 5.988281 -9.453125 6.75 -9.273438 7.375 -8.921875 C 8 -8.566406 8.445312 -8.03125 8.71875 -7.3125 L 7.375 -6.5 L 7.21875 -6.5 C 7.007812 -6.988281 6.734375 -7.335938 6.390625 -7.546875 C 6.054688 -7.753906 5.625 -7.859375 5.09375 -7.859375 C 4.320312 -7.859375 3.71875 -7.601562 3.28125 -7.09375 C 2.84375 -6.582031 2.625 -5.769531 2.625 -4.65625 C 2.625 -3.550781 2.84375 -2.738281 3.28125 -2.21875 C 3.71875 -1.707031 4.320312 -1.453125 5.09375 -1.453125 C 6.300781 -1.453125 7.039062 -2.039062 7.3125 -3.21875 L 7.46875 -3.21875 L 8.828125 -2.515625 C 8.578125 -1.628906 8.140625 -0.960938 7.515625 -0.515625 C 6.898438 -0.078125 6.09375 0.140625 5.09375 0.140625 Z M 5.09375 0.140625 "/></g></g></g><g fill="#000000" fill-opacity="1"><g transform="translate(50.154235, 183.81879)"><g><path d="M 1.015625 0 L 1.015625 -9.84375 L 2.78125 -9.84375 L 2.78125 -6.109375 L 2.90625 -6.078125 C 3.144531 -6.421875 3.429688 -6.6875 3.765625 -6.875 C 4.109375 -7.0625 4.519531 -7.15625 5 -7.15625 C 6.550781 -7.15625 7.328125 -6.273438 7.328125 -4.515625 L 7.328125 0 L 5.5625 0 L 5.5625 -4.296875 C 5.5625 -4.773438 5.460938 -5.125 5.265625 -5.34375 C 5.078125 -5.5625 4.785156 -5.671875 4.390625 -5.671875 C 3.890625 -5.671875 3.492188 -5.503906 3.203125 -5.171875 C 2.921875 -4.847656 2.78125 -4.335938 2.78125 -3.640625 L 2.78125 0 Z M 1.015625 0 "/></g></g></g><g fill="#000000" fill-opacity="1"><g transform="translate(58.383098, 183.81879)"><g><path d="M 6.9375 -3.109375 L 2.421875 -3.109375 C 2.472656 -2.503906 2.644531 -2.0625 2.9375 -1.78125 C 3.238281 -1.5 3.648438 -1.359375 4.171875 -1.359375 C 4.566406 -1.359375 4.890625 -1.429688 5.140625 -1.578125 C 5.390625 -1.734375 5.59375 -1.96875 5.75 -2.28125 L 5.890625 -2.28125 L 7.0625 -1.515625 C 6.832031 -1.023438 6.484375 -0.625 6.015625 -0.3125 C 5.554688 -0.0078125 4.941406 0.140625 4.171875 0.140625 C 3.441406 0.140625 2.8125 0.00390625 2.28125 -0.265625 C 1.75 -0.546875 1.335938 -0.957031 1.046875 -1.5 C 0.765625 -2.050781 0.625 -2.722656 0.625 -3.515625 C 0.625 -4.304688 0.773438 -4.972656 1.078125 -5.515625 C 1.378906 -6.066406 1.785156 -6.476562 2.296875 -6.75 C 2.816406 -7.019531 3.394531 -7.15625 4.03125 -7.15625 C 5.03125 -7.15625 5.789062 -6.890625 6.3125 -6.359375 C 6.84375 -5.835938 7.109375 -5.066406 7.109375 -4.046875 C 7.109375 -3.679688 7.097656 -3.394531 7.078125 -3.1875 Z M 5.421875 -4.25 C 5.410156 -4.789062 5.285156 -5.179688 5.046875 -5.421875 C 4.816406 -5.671875 4.476562 -5.796875 4.03125 -5.796875 C 3.144531 -5.796875 2.625 -5.28125 2.46875 -4.25 Z M 5.421875 -4.25 "/></g></g></g><g fill="#000000" fill-opacity="1"><g transform="translate(66.019644, 183.81879)"><g><path d="M 4.09375 0.140625 C 3.414062 0.140625 2.816406 0 2.296875 -0.28125 C 1.773438 -0.570312 1.363281 -0.988281 1.0625 -1.53125 C 0.769531 -2.082031 0.625 -2.742188 0.625 -3.515625 C 0.625 -4.285156 0.769531 -4.941406 1.0625 -5.484375 C 1.363281 -6.035156 1.769531 -6.453125 2.28125 -6.734375 C 2.800781 -7.015625 3.394531 -7.15625 4.0625 -7.15625 C 5.539062 -7.15625 6.488281 -6.617188 6.90625 -5.546875 L 5.703125 -4.6875 L 5.5625 -4.6875 C 5.414062 -5.007812 5.226562 -5.25 5 -5.40625 C 4.769531 -5.570312 4.457031 -5.65625 4.0625 -5.65625 C 3.550781 -5.65625 3.15625 -5.476562 2.875 -5.125 C 2.59375 -4.78125 2.453125 -4.242188 2.453125 -3.515625 C 2.453125 -2.785156 2.59375 -2.242188 2.875 -1.890625 C 3.164062 -1.535156 3.570312 -1.359375 4.09375 -1.359375 C 4.476562 -1.359375 4.800781 -1.460938 5.0625 -1.671875 C 5.332031 -1.878906 5.523438 -2.175781 5.640625 -2.5625 L 5.765625 -2.578125 L 7.03125 -1.890625 C 6.851562 -1.296875 6.519531 -0.804688 6.03125 -0.421875 C 5.550781 -0.046875 4.90625 0.140625 4.09375 0.140625 Z M 4.09375 0.140625 "/></g></g></g><g fill="#000000" fill-opacity="1"><g transform="translate(73.261306, 183.81879)"><g><path d="M 1.015625 0 L 1.015625 -9.84375 L 2.78125 -9.84375 L 2.78125 -4.390625 L 2.953125 -4.390625 L 4.984375 -7.03125 L 6.765625 -7.03125 L 6.765625 -6.875 L 4.390625 -3.796875 L 7.046875 -0.15625 L 7.046875 0 L 5.171875 0 L 2.953125 -2.96875 L 2.78125 -2.96875 L 2.78125 0 Z M 1.015625 0 "/></g></g></g><g fill="#000000" fill-opacity="1"><g transform="translate(80.311895, 183.81879)"><g/></g></g><g fill="#000000" fill-opacity="1"><g transform="translate(83.388172, 183.81879)"><g><path d="M 4.078125 0.140625 C 3.390625 0.140625 2.785156 0 2.265625 -0.28125 C 1.742188 -0.570312 1.335938 -0.988281 1.046875 -1.53125 C 0.765625 -2.070312 0.625 -2.734375 0.625 -3.515625 C 0.625 -4.285156 0.765625 -4.941406 1.046875 -5.484375 C 1.335938 -6.035156 1.742188 -6.453125 2.265625 -6.734375 C 2.785156 -7.015625 3.390625 -7.15625 4.078125 -7.15625 C 4.765625 -7.15625 5.367188 -7.015625 5.890625 -6.734375 C 6.410156 -6.453125 6.816406 -6.035156 7.109375 -5.484375 C 7.398438 -4.941406 7.546875 -4.285156 7.546875 -3.515625 C 7.546875 -2.734375 7.398438 -2.070312 7.109375 -1.53125 C 6.816406 -0.988281 6.410156 -0.570312 5.890625 -0.28125 C 5.367188 0 4.765625 0.140625 4.078125 0.140625 Z M 4.078125 -1.359375 C 5.171875 -1.359375 5.71875 -2.078125 5.71875 -3.515625 C 5.71875 -4.253906 5.578125 -4.796875 5.296875 -5.140625 C 5.015625 -5.484375 4.609375 -5.65625 4.078125 -5.65625 C 2.992188 -5.65625 2.453125 -4.941406 2.453125 -3.515625 C 2.453125 -2.078125 2.992188 -1.359375 4.078125 -1.359375 Z M 4.078125 -1.359375 "/></g></g></g><g fill="#000000" fill-opacity="1"><g transform="translate(91.553345, 183.81879)"><g><path d="M 3.21875 0.140625 C 2.425781 0.140625 1.84375 -0.0703125 1.46875 -0.5 C 1.09375 -0.9375 0.90625 -1.5625 0.90625 -2.375 L 0.90625 -7.03125 L 2.671875 -7.03125 L 2.671875 -2.59375 C 2.671875 -2.164062 2.757812 -1.851562 2.9375 -1.65625 C 3.125 -1.457031 3.410156 -1.359375 3.796875 -1.359375 C 4.285156 -1.359375 4.664062 -1.515625 4.9375 -1.828125 C 5.207031 -2.148438 5.34375 -2.65625 5.34375 -3.34375 L 5.34375 -7.03125 L 7.109375 -7.03125 L 7.109375 0 L 5.421875 0 L 5.421875 -1.03125 L 5.28125 -1.0625 C 5.0625 -0.65625 4.785156 -0.351562 4.453125 -0.15625 C 4.128906 0.0390625 3.71875 0.140625 3.21875 0.140625 Z M 3.21875 0.140625 "/></g></g></g><g fill="#000000" fill-opacity="1"><g transform="translate(99.680303, 183.81879)"><g><path d="M 4.84375 -1.671875 L 5.3125 -0.375 C 5.113281 -0.21875 4.867188 -0.09375 4.578125 0 C 4.296875 0.09375 3.972656 0.140625 3.609375 0.140625 C 2.847656 0.140625 2.269531 -0.0664062 1.875 -0.484375 C 1.476562 -0.898438 1.28125 -1.503906 1.28125 -2.296875 L 1.28125 -5.625 L 0.203125 -5.625 L 0.203125 -7.03125 L 1.28125 -7.03125 L 1.28125 -8.40625 L 3.046875 -8.6875 L 3.046875 -7.03125 L 5.046875 -7.03125 L 5.046875 -5.625 L 3.046875 -5.625 L 3.046875 -2.421875 C 3.046875 -2.066406 3.117188 -1.8125 3.265625 -1.65625 C 3.410156 -1.5 3.617188 -1.421875 3.890625 -1.421875 C 4.203125 -1.421875 4.476562 -1.503906 4.71875 -1.671875 Z M 4.84375 -1.671875 "/></g></g></g><g fill="#000000" fill-opacity="1"><g transform="translate(105.13862, 183.81879)"><g/></g></g><g fill="#000000" fill-opacity="1"><g transform="translate(108.214897, 183.81879)"><g><path d="M 4.078125 0.140625 C 3.390625 0.140625 2.785156 0 2.265625 -0.28125 C 1.742188 -0.570312 1.335938 -0.988281 1.046875 -1.53125 C 0.765625 -2.070312 0.625 -2.734375 0.625 -3.515625 C 0.625 -4.285156 0.765625 -4.941406 1.046875 -5.484375 C 1.335938 -6.035156 1.742188 -6.453125 2.265625 -6.734375 C 2.785156 -7.015625 3.390625 -7.15625 4.078125 -7.15625 C 4.765625 -7.15625 5.367188 -7.015625 5.890625 -6.734375 C 6.410156 -6.453125 6.816406 -6.035156 7.109375 -5.484375 C 7.398438 -4.941406 7.546875 -4.285156 7.546875 -3.515625 C 7.546875 -2.734375 7.398438 -2.070312 7.109375 -1.53125 C 6.816406 -0.988281 6.410156 -0.570312 5.890625 -0.28125 C 5.367188 0 4.765625 0.140625 4.078125 0.140625 Z M 4.078125 -1.359375 C 5.171875 -1.359375 5.71875 -2.078125 5.71875 -3.515625 C 5.71875 -4.253906 5.578125 -4.796875 5.296875 -5.140625 C 5.015625 -5.484375 4.609375 -5.65625 4.078125 -5.65625 C 2.992188 -5.65625 2.453125 -4.941406 2.453125 -3.515625 C 2.453125 -2.078125 2.992188 -1.359375 4.078125 -1.359375 Z M 4.078125 -1.359375 "/></g></g></g><g fill="#000000" fill-opacity="1"><g transform="translate(116.38007, 183.81879)"><g><path d="M 4.84375 -1.671875 L 5.3125 -0.375 C 5.113281 -0.21875 4.867188 -0.09375 4.578125 0 C 4.296875 0.09375 3.972656 0.140625 3.609375 0.140625 C 2.847656 0.140625 2.269531 -0.0664062 1.875 -0.484375 C 1.476562 -0.898438 1.28125 -1.503906 1.28125 -2.296875 L 1.28125 -5.625 L 0.203125 -5.625 L 0.203125 -7.03125 L 1.28125 -7.03125 L 1.28125 -8.40625 L 3.046875 -8.6875 L 3.046875 -7.03125 L 5.046875 -7.03125 L 5.046875 -5.625 L 3.046875 -5.625 L 3.046875 -2.421875 C 3.046875 -2.066406 3.117188 -1.8125 3.265625 -1.65625 C 3.410156 -1.5 3.617188 -1.421875 3.890625 -1.421875 C 4.203125 -1.421875 4.476562 -1.503906 4.71875 -1.671875 Z M 4.84375 -1.671875 "/></g></g></g><g fill="#000000" fill-opacity="1"><g transform="translate(121.838387, 183.81879)"><g><path d="M 1.015625 0 L 1.015625 -9.84375 L 2.78125 -9.84375 L 2.78125 -6.109375 L 2.90625 -6.078125 C 3.144531 -6.421875 3.429688 -6.6875 3.765625 -6.875 C 4.109375 -7.0625 4.519531 -7.15625 5 -7.15625 C 6.550781 -7.15625 7.328125 -6.273438 7.328125 -4.515625 L 7.328125 0 L 5.5625 0 L 5.5625 -4.296875 C 5.5625 -4.773438 5.460938 -5.125 5.265625 -5.34375 C 5.078125 -5.5625 4.785156 -5.671875 4.390625 -5.671875 C 3.890625 -5.671875 3.492188 -5.503906 3.203125 -5.171875 C 2.921875 -4.847656 2.78125 -4.335938 2.78125 -3.640625 L 2.78125 0 Z M 1.015625 0 "/></g></g></g><g fill="#000000" fill-opacity="1"><g transform="translate(130.06725, 183.81879)"><g><path d="M 6.9375 -3.109375 L 2.421875 -3.109375 C 2.472656 -2.503906 2.644531 -2.0625 2.9375 -1.78125 C 3.238281 -1.5 3.648438 -1.359375 4.171875 -1.359375 C 4.566406 -1.359375 4.890625 -1.429688 5.140625 -1.578125 C 5.390625 -1.734375 5.59375 -1.96875 5.75 -2.28125 L 5.890625 -2.28125 L 7.0625 -1.515625 C 6.832031 -1.023438 6.484375 -0.625 6.015625 -0.3125 C 5.554688 -0.0078125 4.941406 0.140625 4.171875 0.140625 C 3.441406 0.140625 2.8125 0.00390625 2.28125 -0.265625 C 1.75 -0.546875 1.335938 -0.957031 1.046875 -1.5 C 0.765625 -2.050781 0.625 -2.722656 0.625 -3.515625 C 0.625 -4.304688 0.773438 -4.972656 1.078125 -5.515625 C 1.378906 -6.066406 1.785156 -6.476562 2.296875 -6.75 C 2.816406 -7.019531 3.394531 -7.15625 4.03125 -7.15625 C 5.03125 -7.15625 5.789062 -6.890625 6.3125 -6.359375 C 6.84375 -5.835938 7.109375 -5.066406 7.109375 -4.046875 C 7.109375 -3.679688 7.097656 -3.394531 7.078125 -3.1875 Z M 5.421875 -4.25 C 5.410156 -4.789062 5.285156 -5.179688 5.046875 -5.421875 C 4.816406 -5.671875 4.476562 -5.796875 4.03125 -5.796875 C 3.144531 -5.796875 2.625 -5.28125 2.46875 -4.25 Z M 5.421875 -4.25 "/></g></g></g><g fill="#000000" fill-opacity="1"><g transform="translate(137.703796, 183.81879)"><g><path d="M 1.015625 0 L 1.015625 -7.03125 L 2.734375 -7.03125 L 2.734375 -5.984375 L 2.859375 -5.953125 C 3.023438 -6.347656 3.242188 -6.632812 3.515625 -6.8125 C 3.796875 -7 4.132812 -7.09375 4.53125 -7.09375 C 4.9375 -7.09375 5.242188 -7.023438 5.453125 -6.890625 L 5.140625 -5.359375 L 5.015625 -5.34375 C 4.898438 -5.382812 4.785156 -5.414062 4.671875 -5.4375 C 4.566406 -5.457031 4.441406 -5.46875 4.296875 -5.46875 C 3.804688 -5.46875 3.429688 -5.296875 3.171875 -4.953125 C 2.910156 -4.609375 2.78125 -4.050781 2.78125 -3.28125 L 2.78125 0 Z M 1.015625 0 "/></g></g></g><g fill="#000000" fill-opacity="1"><g transform="translate(143.213065, 183.81879)"><g/></g></g><g fill="#000000" fill-opacity="1"><g transform="translate(146.289343, 183.81879)"><g><path d="M 1.015625 2.84375 L 1.015625 -7.03125 L 2.78125 -7.03125 L 2.78125 -6.109375 L 2.90625 -6.078125 C 3.113281 -6.441406 3.390625 -6.710938 3.734375 -6.890625 C 4.085938 -7.066406 4.5 -7.15625 4.96875 -7.15625 C 5.53125 -7.15625 6.019531 -7.019531 6.4375 -6.75 C 6.863281 -6.488281 7.195312 -6.082031 7.4375 -5.53125 C 7.675781 -4.988281 7.796875 -4.316406 7.796875 -3.515625 C 7.796875 -2.710938 7.671875 -2.035156 7.421875 -1.484375 C 7.171875 -0.941406 6.820312 -0.535156 6.375 -0.265625 C 5.9375 0.00390625 5.429688 0.140625 4.859375 0.140625 C 4.421875 0.140625 4.039062 0.0664062 3.71875 -0.078125 C 3.40625 -0.234375 3.132812 -0.460938 2.90625 -0.765625 L 2.78125 -0.75 L 2.78125 2.84375 Z M 4.359375 -1.359375 C 4.890625 -1.359375 5.289062 -1.53125 5.5625 -1.875 C 5.832031 -2.21875 5.96875 -2.765625 5.96875 -3.515625 C 5.96875 -4.253906 5.832031 -4.796875 5.5625 -5.140625 C 5.289062 -5.484375 4.890625 -5.65625 4.359375 -5.65625 C 3.867188 -5.65625 3.476562 -5.476562 3.1875 -5.125 C 2.90625 -4.769531 2.765625 -4.234375 2.765625 -3.515625 C 2.765625 -2.796875 2.90625 -2.253906 3.1875 -1.890625 C 3.476562 -1.535156 3.867188 -1.359375 4.359375 -1.359375 Z M 4.359375 -1.359375 "/></g></g></g><g fill="#000000" fill-opacity="1"><g transform="translate(154.702917, 183.81879)"><g><path d="M 1.015625 0 L 1.015625 -7.03125 L 2.734375 -7.03125 L 2.734375 -5.984375 L 2.859375 -5.953125 C 3.023438 -6.347656 3.242188 -6.632812 3.515625 -6.8125 C 3.796875 -7 4.132812 -7.09375 4.53125 -7.09375 C 4.9375 -7.09375 5.242188 -7.023438 5.453125 -6.890625 L 5.140625 -5.359375 L 5.015625 -5.34375 C 4.898438 -5.382812 4.785156 -5.414062 4.671875 -5.4375 C 4.566406 -5.457031 4.441406 -5.46875 4.296875 -5.46875 C 3.804688 -5.46875 3.429688 -5.296875 3.171875 -4.953125 C 2.910156 -4.609375 2.78125 -4.050781 2.78125 -3.28125 L 2.78125 0 Z M 1.015625 0 "/></g></g></g><g fill="#000000" fill-opacity="1"><g transform="translate(160.212187, 183.81879)"><g><path d="M 4.078125 0.140625 C 3.390625 0.140625 2.785156 0 2.265625 -0.28125 C 1.742188 -0.570312 1.335938 -0.988281 1.046875 -1.53125 C 0.765625 -2.070312 0.625 -2.734375 0.625 -3.515625 C 0.625 -4.285156 0.765625 -4.941406 1.046875 -5.484375 C 1.335938 -6.035156 1.742188 -6.453125 2.265625 -6.734375 C 2.785156 -7.015625 3.390625 -7.15625 4.078125 -7.15625 C 4.765625 -7.15625 5.367188 -7.015625 5.890625 -6.734375 C 6.410156 -6.453125 6.816406 -6.035156 7.109375 -5.484375 C 7.398438 -4.941406 7.546875 -4.285156 7.546875 -3.515625 C 7.546875 -2.734375 7.398438 -2.070312 7.109375 -1.53125 C 6.816406 -0.988281 6.410156 -0.570312 5.890625 -0.28125 C 5.367188 0 4.765625 0.140625 4.078125 0.140625 Z M 4.078125 -1.359375 C 5.171875 -1.359375 5.71875 -2.078125 5.71875 -3.515625 C 5.71875 -4.253906 5.578125 -4.796875 5.296875 -5.140625 C 5.015625 -5.484375 4.609375 -5.65625 4.078125 -5.65625 C 2.992188 -5.65625 2.453125 -4.941406 2.453125 -3.515625 C 2.453125 -2.078125 2.992188 -1.359375 4.078125 -1.359375 Z M 4.078125 -1.359375 "/></g></g></g><g fill="#000000" fill-opacity="1"><g transform="translate(168.37736, 183.81879)"><g><path d="M 1.890625 -7.875 C 1.578125 -7.875 1.316406 -7.96875 1.109375 -8.15625 C 0.910156 -8.351562 0.8125 -8.601562 0.8125 -8.90625 C 0.8125 -9.207031 0.910156 -9.453125 1.109375 -9.640625 C 1.316406 -9.835938 1.578125 -9.9375 1.890625 -9.9375 C 2.097656 -9.9375 2.285156 -9.890625 2.453125 -9.796875 C 2.617188 -9.710938 2.75 -9.59375 2.84375 -9.4375 C 2.9375 -9.28125 2.984375 -9.101562 2.984375 -8.90625 C 2.984375 -8.707031 2.9375 -8.53125 2.84375 -8.375 C 2.75 -8.21875 2.617188 -8.09375 2.453125 -8 C 2.285156 -7.914062 2.097656 -7.875 1.890625 -7.875 Z M 0.546875 2.984375 C 0.0234375 2.984375 -0.390625 2.914062 -0.703125 2.78125 L -0.484375 1.390625 L -0.359375 1.34375 C -0.191406 1.425781 0.00390625 1.46875 0.234375 1.46875 C 0.753906 1.46875 1.015625 1.160156 1.015625 0.546875 L 1.015625 -7.03125 L 2.78125 -7.03125 L 2.78125 0.5 C 2.78125 1.320312 2.585938 1.941406 2.203125 2.359375 C 1.828125 2.773438 1.273438 2.984375 0.546875 2.984375 Z M 0.546875 2.984375 "/></g></g></g><g fill="#000000" fill-opacity="1"><g transform="translate(172.160599, 183.81879)"><g><path d="M 6.9375 -3.109375 L 2.421875 -3.109375 C 2.472656 -2.503906 2.644531 -2.0625 2.9375 -1.78125 C 3.238281 -1.5 3.648438 -1.359375 4.171875 -1.359375 C 4.566406 -1.359375 4.890625 -1.429688 5.140625 -1.578125 C 5.390625 -1.734375 5.59375 -1.96875 5.75 -2.28125 L 5.890625 -2.28125 L 7.0625 -1.515625 C 6.832031 -1.023438 6.484375 -0.625 6.015625 -0.3125 C 5.554688 -0.0078125 4.941406 0.140625 4.171875 0.140625 C 3.441406 0.140625 2.8125 0.00390625 2.28125 -0.265625 C 1.75 -0.546875 1.335938 -0.957031 1.046875 -1.5 C 0.765625 -2.050781 0.625 -2.722656 0.625 -3.515625 C 0.625 -4.304688 0.773438 -4.972656 1.078125 -5.515625 C 1.378906 -6.066406 1.785156 -6.476562 2.296875 -6.75 C 2.816406 -7.019531 3.394531 -7.15625 4.03125 -7.15625 C 5.03125 -7.15625 5.789062 -6.890625 6.3125 -6.359375 C 6.84375 -5.835938 7.109375 -5.066406 7.109375 -4.046875 C 7.109375 -3.679688 7.097656 -3.394531 7.078125 -3.1875 Z M 5.421875 -4.25 C 5.410156 -4.789062 5.285156 -5.179688 5.046875 -5.421875 C 4.816406 -5.671875 4.476562 -5.796875 4.03125 -5.796875 C 3.144531 -5.796875 2.625 -5.28125 2.46875 -4.25 Z M 5.421875 -4.25 "/></g></g></g><g fill="#000000" fill-opacity="1"><g transform="translate(179.797144, 183.81879)"><g><path d="M 4.09375 0.140625 C 3.414062 0.140625 2.816406 0 2.296875 -0.28125 C 1.773438 -0.570312 1.363281 -0.988281 1.0625 -1.53125 C 0.769531 -2.082031 0.625 -2.742188 0.625 -3.515625 C 0.625 -4.285156 0.769531 -4.941406 1.0625 -5.484375 C 1.363281 -6.035156 1.769531 -6.453125 2.28125 -6.734375 C 2.800781 -7.015625 3.394531 -7.15625 4.0625 -7.15625 C 5.539062 -7.15625 6.488281 -6.617188 6.90625 -5.546875 L 5.703125 -4.6875 L 5.5625 -4.6875 C 5.414062 -5.007812 5.226562 -5.25 5 -5.40625 C 4.769531 -5.570312 4.457031 -5.65625 4.0625 -5.65625 C 3.550781 -5.65625 3.15625 -5.476562 2.875 -5.125 C 2.59375 -4.78125 2.453125 -4.242188 2.453125 -3.515625 C 2.453125 -2.785156 2.59375 -2.242188 2.875 -1.890625 C 3.164062 -1.535156 3.570312 -1.359375 4.09375 -1.359375 C 4.476562 -1.359375 4.800781 -1.460938 5.0625 -1.671875 C 5.332031 -1.878906 5.523438 -2.175781 5.640625 -2.5625 L 5.765625 -2.578125 L 7.03125 -1.890625 C 6.851562 -1.296875 6.519531 -0.804688 6.03125 -0.421875 C 5.550781 -0.046875 4.90625 0.140625 4.09375 0.140625 Z M 4.09375 0.140625 "/></g></g></g><g fill="#000000" fill-opacity="1"><g transform="translate(187.038806, 183.81879)"><g><path d="M 4.84375 -1.671875 L 5.3125 -0.375 C 5.113281 -0.21875 4.867188 -0.09375 4.578125 0 C 4.296875 0.09375 3.972656 0.140625 3.609375 0.140625 C 2.847656 0.140625 2.269531 -0.0664062 1.875 -0.484375 C 1.476562 -0.898438 1.28125 -1.503906 1.28125 -2.296875 L 1.28125 -5.625 L 0.203125 -5.625 L 0.203125 -7.03125 L 1.28125 -7.03125 L 1.28125 -8.40625 L 3.046875 -8.6875 L 3.046875 -7.03125 L 5.046875 -7.03125 L 5.046875 -5.625 L 3.046875 -5.625 L 3.046875 -2.421875 C 3.046875 -2.066406 3.117188 -1.8125 3.265625 -1.65625 C 3.410156 -1.5 3.617188 -1.421875 3.890625 -1.421875 C 4.203125 -1.421875 4.476562 -1.503906 4.71875 -1.671875 Z M 4.84375 -1.671875 "/></g></g></g><g fill="#000000" fill-opacity="1"><g transform="translate(192.497123, 183.81879)"><g><path d="M 3.28125 0.140625 C 2.800781 0.140625 2.363281 0.0820312 1.96875 -0.03125 C 1.570312 -0.144531 1.226562 -0.300781 0.9375 -0.5 C 0.65625 -0.695312 0.445312 -0.921875 0.3125 -1.171875 L 1.296875 -2.234375 L 1.4375 -2.234375 C 1.664062 -1.921875 1.9375 -1.6875 2.25 -1.53125 C 2.570312 -1.375 2.921875 -1.296875 3.296875 -1.296875 C 3.640625 -1.296875 3.898438 -1.351562 4.078125 -1.46875 C 4.253906 -1.59375 4.34375 -1.769531 4.34375 -2 C 4.34375 -2.1875 4.28125 -2.335938 4.15625 -2.453125 C 4.03125 -2.578125 3.828125 -2.671875 3.546875 -2.734375 L 2.609375 -2.96875 C 1.910156 -3.125 1.398438 -3.375 1.078125 -3.71875 C 0.765625 -4.0625 0.609375 -4.5 0.609375 -5.03125 C 0.609375 -5.46875 0.71875 -5.847656 0.9375 -6.171875 C 1.164062 -6.492188 1.476562 -6.738281 1.875 -6.90625 C 2.28125 -7.070312 2.753906 -7.15625 3.296875 -7.15625 C 3.929688 -7.15625 4.457031 -7.0625 4.875 -6.875 C 5.289062 -6.695312 5.613281 -6.457031 5.84375 -6.15625 L 4.90625 -5.140625 L 4.78125 -5.140625 C 4.582031 -5.359375 4.359375 -5.515625 4.109375 -5.609375 C 3.867188 -5.710938 3.597656 -5.765625 3.296875 -5.765625 C 2.597656 -5.765625 2.25 -5.550781 2.25 -5.125 C 2.25 -4.9375 2.3125 -4.785156 2.4375 -4.671875 C 2.570312 -4.554688 2.804688 -4.460938 3.140625 -4.390625 L 4 -4.203125 C 4.71875 -4.046875 5.238281 -3.800781 5.5625 -3.46875 C 5.894531 -3.132812 6.0625 -2.679688 6.0625 -2.109375 C 6.0625 -1.660156 5.945312 -1.265625 5.71875 -0.921875 C 5.5 -0.585938 5.179688 -0.328125 4.765625 -0.140625 C 4.347656 0.046875 3.851562 0.140625 3.28125 0.140625 Z M 3.28125 0.140625 "/></g></g></g></svg>